# xmcd CD database file
#
# Track frame offsets:
#	150
#	23095
#	42214
#	64781
#	91505
#	110712
#	135052
#	160002
#	195501
#	218346
#	241373
#	266563
#	277937
#	308175
#
# Disc length: 4421 seconds
#
# Revision: 0
# Processed by: cddbd v1.5.1PL2 Copyright (c) Steve Scherf et al.
# Submitted via: CDex 1.51
#
DISCID=aa11430e
DTITLE=Rick Culver - I'm Old Fashioned
DYEAR=2006
DGENRE=Jazz
TTITLE0=I'm Old Fashioned
TTITLE1=How About That Kiss
TTITLE2=Darn That Dream
TTITLE3=Shuffle Bored
TTITLE4=Glide Path
TTITLE5=Lullaby
TTITLE6=Sailing
TTITLE7=If I Had You
TTITLE8=Samba Ta Me
TTITLE9=That Moonlight
TTITLE10=Emily
TTITLE11=Late LifeRag
TTITLE12=Santa Claus Is Coming To Town
TTITLE13=Going Home
EXTD=YEAR: 2006
EXTT0=
EXTT1=
EXTT2=
EXTT3=
EXTT4=
EXTT5=
EXTT6=
EXTT7=
EXTT8=
EXTT9=
EXTT10=
EXTT11=
EXTT12=
EXTT13=
PLAYORDER=
